# Blender v2.72 (sub 0) OBJ File: ''
# www.blender.org
o Trunk
v 0.837838 -0.495868 -0.342162
v 0.837838 -0.495868 -0.837838
v 0.786697 0.000000 -0.786697
v 0.786697 0.000000 -0.393303
v 0.342162 -0.495868 -0.342162
v 0.342162 -0.495868 -0.837838
v 0.393303 0.000000 -0.393303
v 0.393303 0.000000 -0.786697
vt 0.380836 -0.263275
vt 0.357590 -0.036685
vt 0.178774 -0.036685
vt -0.380836 0.155528
vt -0.155528 0.155528
vt -0.155528 0.380836
vt -0.357590 0.018341
vt -0.380836 -0.208249
vt -0.155528 -0.208249
vt -0.178774 -0.036685
vt -0.357590 -0.036685
vt -0.380836 -0.263275
vt 0.357590 0.018341
vt 0.178774 0.018341
vt 0.155528 -0.208249
vt 0.155528 -0.263275
vt -0.380836 0.380836
vt -0.178774 0.018341
vt -0.155528 -0.263275
vt 0.380836 -0.208249
vn 0.994700 0.102600 0.000000
vn 0.000000 -1.000000 -0.000000
vn -0.994700 0.102600 0.000000
vn 0.000000 0.102600 -0.994700
vn 0.000000 0.102600 0.994700
s off
f 2/1/1 3/2/1 4/3/1
f 1/4/2 5/5/2 6/6/2
f 8/7/3 6/8/3 5/9/3
f 8/10/4 3/11/4 2/12/4
f 4/13/5 7/14/5 5/15/5
f 1/16/1 2/1/1 4/3/1
f 2/17/2 1/4/2 6/6/2
f 7/18/3 8/7/3 5/9/3
f 6/19/4 8/10/4 2/12/4
f 1/20/5 4/13/5 5/15/5
o Leaves
v 0.000000 0.000000 -1.180000
v 0.177000 0.600000 -1.003000
v 1.003000 0.600000 -1.003000
v 1.180000 0.000000 -1.180000
v 0.177000 0.600000 -0.177000
v 0.000000 0.000000 0.000000
v 0.082600 0.600000 -0.082600
v 1.097400 0.600000 -0.082600
v 1.003000 0.600000 -0.177000
v 1.180000 0.000000 0.000000
v 0.786697 0.000000 -0.393303
v 0.393303 0.000000 -0.393303
v 0.393303 0.000000 -0.786697
v 0.786697 0.000000 -0.786697
v 1.097400 0.600000 -1.097400
v 0.082600 0.600000 -1.097400
v 0.234820 1.343040 -0.234820
v 0.234820 1.343040 -0.945180
v 0.153636 1.343040 -0.153636
v 1.026360 1.343040 -0.153636
v 0.945180 1.343040 -0.234820
v 0.945180 1.343040 -0.945180
v 1.026360 1.343040 -1.026360
v 0.153636 1.343040 -1.026360
v 0.590000 2.663040 -0.590000
vt 0.000000 -0.151761
vt -0.080454 0.132585
vt -0.455909 0.132585
vt 0.000000 0.000000
vt -0.080454 0.284347
vt -0.455909 0.284347
vt -0.080454 0.080454
vt -0.037545 0.037545
vt -0.080454 0.455909
vt -0.498818 0.037545
vt -0.455909 0.080454
vt 0.455909 0.284347
vt 0.080454 0.284347
vt 0.536364 -0.151761
vt 0.455909 0.132585
vt -0.536364 0.000000
vt -0.357590 0.178774
vt -0.536364 0.536364
vt -0.178774 0.178774
vt -0.178774 0.357590
vt 0.000000 0.536364
vt -0.357590 0.357590
vt -0.455909 0.455909
vt -0.498818 0.498818
vt -0.037545 0.498818
vt -0.429627 0.619473
vt -0.498818 0.274714
vt -0.037545 0.274714
vt -0.106736 0.106736
vt -0.069835 0.069835
vt -0.106736 0.429627
vt -0.466529 0.069835
vt -0.429627 0.106736
vt 0.429627 0.619473
vt 0.106736 0.619473
vt 0.037545 0.274714
vt 0.037545 0.167069
vt 0.498818 0.167069
vt 0.429627 0.511829
vt -0.037545 0.167069
vt -0.106736 0.511829
vt -0.429627 0.511829
vt -0.466529 0.466529
vt -0.429627 0.429627
vt -0.069835 0.466529
vt -0.268182 1.233480
vt -0.466529 0.601542
vt -0.069835 0.601542
vt -0.268182 1.065130
vt -0.466529 0.433192
vt -0.069835 0.433192
vt 0.466529 0.433192
vt 0.268182 1.065130
vt 0.069835 0.433192
vt 0.466529 0.601542
vt 0.268182 1.233480
vt 0.069835 0.601542
vt -0.536364 -0.151761
vt 0.536364 -0.000000
vt 0.080454 0.132585
vt -0.106736 0.619473
vt 0.498818 0.274714
vt 0.106736 0.511829
vt -0.498818 0.167069
vn 0.000000 0.282900 -0.959100
vn -0.959100 0.282900 0.000000
vn -0.000000 -1.000000 -0.000000
vn 0.000000 0.282900 0.959100
vn 0.959100 0.282900 0.000000
vn -0.979700 0.200700 0.000000
vn 0.000000 0.200700 0.979700
vn 0.979700 0.200700 0.000000
vn 0.000000 0.200700 -0.979700
vn -0.949500 0.313900 0.000000
vn 0.000000 0.313900 -0.949500
vn 0.949500 0.313900 0.000000
vn 0.000000 0.313900 0.949500
s off
f 9/21/6 10/22/6 11/23/6
f 14/24/7 13/25/7 10/26/7
f 13/27/8 15/28/8 10/29/8
f 15/28/8 13/27/8 16/30/8
f 16/30/8 13/27/8 17/31/8
f 17/32/9 13/33/9 14/24/9
f 18/21/10 12/34/10 11/35/10
f 18/36/8 19/37/8 12/38/8
f 18/36/8 20/39/8 19/37/8
f 14/24/8 20/39/8 18/36/8
f 20/39/8 14/24/8 21/40/8
f 9/41/8 21/40/8 14/24/8
f 21/40/8 9/41/8 12/38/8
f 21/40/8 12/38/8 22/42/8
f 22/42/8 12/38/8 19/37/8
f 21/40/8 22/42/8 19/37/8
f 11/43/8 23/44/8 17/31/8
f 10/29/8 23/44/8 11/43/8
f 10/29/8 24/45/8 23/44/8
f 24/45/8 10/29/8 15/28/8
f 26/46/11 24/47/11 15/48/11
f 25/49/8 27/50/8 26/51/8
f 27/50/8 25/49/8 28/52/8
f 28/52/8 25/49/8 29/53/8
f 29/54/12 25/55/12 15/56/12
f 16/57/13 23/58/13 30/59/13
f 16/30/8 17/31/8 23/44/8
f 24/60/14 26/61/14 30/62/14
f 26/51/8 31/63/8 30/64/8
f 26/51/8 32/65/8 31/63/8
f 32/65/8 26/51/8 27/50/8
f 33/66/15 32/67/15 27/68/15
f 33/69/16 31/70/16 32/71/16
f 31/72/17 33/73/17 28/74/17
f 28/75/18 33/76/18 27/77/18
f 28/52/8 29/53/8 31/63/8
f 30/64/8 31/63/8 29/53/8
f 12/78/6 9/21/6 11/23/6
f 9/36/7 14/24/7 10/26/7
f 18/79/9 17/32/9 14/24/9
f 17/80/10 18/21/10 11/35/10
f 20/39/8 21/40/8 19/37/8
f 25/81/11 26/46/11 15/48/11
f 16/82/12 29/54/12 15/56/12
f 29/83/13 16/57/13 30/59/13
f 23/84/14 24/60/14 30/62/14
